# Blender v2.78 (sub 0) OBJ File: ''
# www.blender.org
mtllib prism.mtl
o Cube
v 1.000000 -1.000000 -1.000000
v 1.000000 -1.000000 1.000000
v -1.000000 -1.000000 1.000000
v -1.000000 -1.000000 -1.000000
v 1.000000 1.000000 -0.999999
v 1.007305 1.003854 1.003855
v -1.007305 1.003854 1.003853
v -1.000000 1.000000 -1.000000
v 1.499087 -1.000000 0.000000
v 0.000000 -1.000000 -1.500000
v 1.000000 0.000000 -1.000000
v 0.000000 -1.000000 1.499036
v 1.003652 0.001927 1.001927
v -1.499087 -1.000000 -0.000000
v -1.003653 0.001927 1.001927
v -1.000000 0.000000 -1.000000
v 1.500000 1.001930 0.001928
v 0.000000 1.000000 -1.500000
v -0.000000 1.003854 1.500000
v -1.500000 1.001927 0.001927
v 0.000000 0.000000 -1.500000
v -1.500913 0.000963 0.000963
v -0.000000 0.001927 1.500963
v 1.500913 0.000963 0.000964
v -0.000000 1.000000 0.000000
v 0.000000 -1.000000 -0.000000
vn 0.0000 -1.0000 0.0000
vn 0.0013 1.0000 -0.0026
vn 0.8965 -0.0019 0.4431
vn -0.4435 -0.0012 0.8963
vn -0.8945 0.0006 -0.4470
vn -0.4472 0.0000 -0.8944
vn 0.4472 0.0000 -0.8944
vn -0.8945 -0.0006 -0.4470
vn -0.8952 -0.0031 0.4457
vn -0.8965 -0.0019 0.4431
vn -0.4459 -0.0025 0.8951
vn 0.4459 -0.0025 0.8951
vn 0.4435 -0.0012 0.8963
vn 0.8952 -0.0031 0.4457
vn 0.8945 -0.0006 -0.4470
vn 0.8945 0.0006 -0.4470
vn -0.0013 1.0000 -0.0026
vn -0.0006 1.0000 -0.0006
vn 0.0006 1.0000 -0.0006
f 26//1 12//1 3//1 14//1
f 25//2 20//2 7//2 19//2
f 24//3 17//3 6//3 13//3
f 23//4 19//4 7//4 15//4
f 22//5 20//5 8//5 16//5
f 21//6 10//6 4//6 16//6
f 18//6 21//6 16//6 8//6
f 5//7 11//7 21//7 18//7
f 11//7 1//7 10//7 21//7
f 14//8 22//8 16//8 4//8
f 3//9 15//9 22//9 14//9
f 15//10 7//10 20//10 22//10
f 12//11 23//11 15//11 3//11
f 2//12 13//12 23//12 12//12
f 13//13 6//13 19//13 23//13
f 9//14 24//14 13//14 2//14
f 1//15 11//15 24//15 9//15
f 11//16 5//16 17//16 24//16
f 17//17 25//17 19//17 6//17
f 5//18 18//18 25//18 17//18
f 18//19 8//19 20//19 25//19
f 10//1 26//1 14//1 4//1
f 1//1 9//1 26//1 10//1
f 9//1 2//1 12//1 26//1
